<svg version="1.1" id="Layer_1" xmlns="http://www.w3.org/2000/svg" xmlns:xlink="http://www.w3.org/1999/xlink" x="0px" y="0px" viewBox="0 0 332.8 83" style="enable-background:new 0 0 332.8 83;" xml:space="preserve">
 <style type="text/css">
  .st0{fill:#F50082;}
	.st1{fill:#00005A;}
 </style>
 <g>
  <path class="st0" d="M52.9,23.9c-3.4,0-5.3-1.3-5.7-3.8V20h-5.9v0.1c0.8,5.3,5.1,8.4,11.8,8.4c7.8,0,13-5.2,13-13.1V15
		c0-7.8-5.2-13.3-12.8-13.3c-3.1-0.1-6.1,1-8.5,3c-2.4,2.3-3.7,5.6-3.7,9.9v1.8h18.7C59.6,21.3,57.1,23.9,52.9,23.9 M47.2,12.4
		c0.3-4.1,2.3-6.1,6.1-6.1c3.4,0,5.8,2.3,6.4,6.1H47.2z">
  </path>
  <path class="st0" d="M67,28.9c-3.1-0.1-6.1,1-8.5,3c-2.4,2.3-3.7,5.6-3.7,9.9v1.8h18.7c-0.2,4.7-2.7,7.4-6.9,7.4
		c-3.4,0-5.3-1.3-5.7-3.8v-0.1H55v0.1c0.8,5.3,5.1,8.4,11.8,8.4c7.8,0,13-5.2,13-13.1v-0.4C79.8,34.3,74.5,28.9,67,28.9 M60.9,39.5
		c0.3-4.1,2.3-6.1,6.1-6.1c3.4,0,5.8,2.3,6.4,6.1H60.9z">
  </path>
  <path class="st0" d="M53.3,56.3c-3.1-0.1-6.1,1-8.5,3c-2.4,2.3-3.7,5.6-3.7,9.9v1.8h18.7c-0.2,4.7-2.7,7.4-6.9,7.4
		c-3.4,0-5.3-1.3-5.7-3.8v-0.1h-5.9v0.1C42,79.9,46.4,83,53,83c7.8,0,13-5.2,13-13.1v-0.4C66,61.7,60.8,56.3,53.3,56.3 M47.2,66.9
		c0.3-4.1,2.3-6.1,6.1-6.1c3.4,0,5.8,2.3,6.4,6.1H47.2z">
  </path>
  <path class="st1" d="M26.7,28.5c6.7,0,11-3.1,11.8-8.4V20h-5.9v0.1c-0.4,2.5-2.3,3.8-5.7,3.8c-4.2,0-6.7-2.6-6.9-7.4h18.6v-1.8
		c0-4.3-1.2-7.6-3.7-9.9c-2.3-2.1-5.4-3.2-8.5-3c-7.5,0-12.8,5.5-12.8,13.3v0.4C13.7,23.3,19,28.5,26.7,28.5 M20.1,12.4
		c0.6-3.9,3-6.2,6.4-6.2c3.7,0,5.8,2.1,6.1,6.1L20.1,12.4z">
  </path>
  <path class="st1" d="M52.4,41.8c0-4.3-1.2-7.6-3.7-9.9c-2.3-2.1-5.4-3.2-8.5-3c-7.5,0-12.8,5.5-12.8,13.3v0.4
		c0,7.8,5.2,13.1,13,13.1c6.7,0,11-3.1,11.8-8.4v-0.1h-5.9v0.1C45.9,49.7,44,51,40.6,51c-4.2,0-6.7-2.6-6.9-7.4h18.6V41.8z
		 M33.8,39.5c0.6-3.8,3-6.1,6.4-6.1c3.7,0,5.8,2.1,6.1,6.1H33.8z">
  </path>
  <path class="st1" d="M26.5,56.3c-7.5,0-12.8,5.5-12.8,13.3v0.4c0,7.8,5.2,13.1,13,13.1c6.7,0,11-3.1,11.8-8.4v-0.1h-5.9v0.1
		c-0.4,2.5-2.3,3.8-5.7,3.8c-4.2,0-6.7-2.6-6.9-7.4h18.6v-1.8c0-4.3-1.2-7.6-3.7-9.9C32.6,57.3,29.6,56.2,26.5,56.3 M20.1,66.9
		c0.6-3.8,3-6.1,6.4-6.1c3.7,0,5.8,2.1,6.1,6.1H20.1z">
  </path>
  <path class="st1" d="M24.8,47.2v-0.1h-5.9v0.1c-0.4,2.5-2.3,3.8-5.7,3.8c-4.2,0-6.7-2.6-6.9-7.4h18.6v-1.8c0-4.3-1.2-7.6-3.7-9.9
		c-2.3-2.1-5.4-3.2-8.5-3C5.2,28.9,0,34.4,0,42.1v0.4c0,7.8,5.2,13.1,13,13.1C19.7,55.6,24,52.5,24.8,47.2 M5.7,39.5
		c0.6-3.8,3-6.1,6.4-6.1c3.7,0,5.8,2.1,6.1,6.1H5.7z">
  </path>
  <path class="st1" d="M139.3,24.6c-3.9-3.7-9.3-5.6-15.5-5.6c-13.8,0-23.4,10-23.4,24.3V44c0,14.3,9.6,24,23.9,24
		c12.3,0,20.1-5.6,21.7-15.4l0.1-0.4h-11.1l-0.1,0.3c-0.8,4.5-4.3,6.8-10.3,6.8c-7.5,0-11.9-4.6-12.4-13h34v-3.5
		C146,34.9,143.7,28.8,139.3,24.6 M112.3,38.4c1.2-6.9,5.3-10.8,11.5-10.8c6.6,0,10.3,3.6,10.9,10.8H112.3z">
  </path>
  <path class="st1" d="M170.9,38.3c-7.2-1.2-9.3-2.5-9.3-5.6c0-3.1,2.7-5.1,7-5.1c4.7,0,7,1.8,7.9,5.9l0.1,0.3h10.6l0-0.4
		c-1-9.5-7.3-14.3-18.6-14.3c-4.3-0.1-8.6,1.1-12.2,3.5c-3.6,2.4-5.7,6.5-5.6,10.8c0,8.7,4.5,12.5,17.1,14.5c7.3,1.2,9.6,2.7,9.6,6
		c0,3.8-2.5,5.6-8,5.6c-5.7,0-8.3-2.1-8.9-7.1v-0.3h-10.9v0.4c0.4,10,7.7,15.7,19.8,15.7s18.9-5.5,18.9-15.2
		C188.6,42.9,182.1,40,170.9,38.3">
  </path>
  <path class="st1" d="M213.6,38.3c-7.2-1.2-9.3-2.5-9.3-5.6c0-3.1,2.7-5.1,7-5.1c4.7,0,7,1.8,7.9,5.9l0.1,0.3h10.6l0-0.4
		c-1-9.5-7.3-14.3-18.6-14.3c-4.3-0.1-8.6,1.1-12.2,3.5c-3.6,2.4-5.7,6.5-5.6,10.8c0,8.7,4.5,12.5,17.1,14.5c7.3,1.2,9.6,2.7,9.6,6
		c0,3.8-2.5,5.6-8,5.6c-5.7,0-8.3-2.1-8.9-7.1v-0.3h-10.9v0.4c0.4,10,7.7,15.7,19.8,15.7c12.1,0,18.9-5.5,18.9-15.2
		C231.2,42.9,224.8,40,213.6,38.3">
  </path>
  <path class="st1" d="M243.1,0c-3.6-0.1-6.7,2.8-6.7,6.4c0,0,0,0.1,0,0.1c0.3,3.7,3.5,6.5,7.2,6.3c3.4-0.2,6.1-2.9,6.3-6.3
		c0-3.6-3-6.6-6.6-6.6C243.1,0,243.1,0,243.1,0">
  </path>
  <polygon class="st1" points="237.8,20 237.5,20 237.5,20.3 237.5,66.8 237.5,67.1 237.8,67.1 248.6,67.1 248.9,67.1 248.9,66.8 
		248.9,20.3 248.9,20 248.6,20 	">
  </polygon>
  <path class="st1" d="M276.8,58.4c-3.3,0-5-1.9-5-5.6v-24H282V20h-10.2V9.8h-11.5V20h-6v8.8h6v25.1c0,9.1,5.1,14.1,14.4,14.1
		c2.5,0.1,5-0.3,7.4-1.2l0.2-0.1v-9.3l-0.5,0.2C280.2,58.2,278.5,58.5,276.8,58.4">
  </path>
  <polygon class="st1" points="332.3,20 321.8,20 321.5,20 321.5,20.2 310.4,49.3 298.4,20.2 298.3,20 298.1,20 286.5,20 285.9,20 
		286.1,20.5 304.4,62.1 296.1,82.5 295.9,83 296.4,83 307,83 307.2,83 307.3,82.8 332.6,20.5 332.8,20 	">
  </polygon>
 </g>
</svg>