<svg version="1.1" id="Layer_1" xmlns="http://www.w3.org/2000/svg" xmlns:xlink="http://www.w3.org/1999/xlink" x="0px" y="0px" viewBox="0 0 79.8 81.2" style="enable-background:new 0 0 79.8 81.2;" xml:space="preserve">
 <style type="text/css">
  .st0{fill:#F50082;}
	.st1{fill:#00005A;}
 </style>
 <g>
  <path class="st0" d="M52.9,22.1c-3.4,0-5.3-1.3-5.7-3.8v-0.1h-5.9v0.1c0.8,5.3,5.1,8.4,11.8,8.4c7.8,0,13-5.2,13-13.1v-0.4
		C66,5.4,60.8,0,53.3,0c-3.1-0.1-6.1,1-8.5,3c-2.4,2.3-3.7,5.6-3.7,9.9v1.8h18.7C59.6,19.5,57.1,22.1,52.9,22.1 M47.2,10.6
		c0.3-4.1,2.3-6.1,6.1-6.1c3.4,0,5.8,2.3,6.4,6.1H47.2z">
  </path>
  <path class="st0" d="M67,27.1c-3.1-0.1-6.1,1-8.5,3c-2.4,2.3-3.7,5.6-3.7,9.9v1.8h18.7c-0.2,4.7-2.7,7.4-6.9,7.4
		c-3.4,0-5.3-1.3-5.7-3.8v-0.1H55v0.1c0.8,5.3,5.1,8.4,11.8,8.4c7.8,0,13-5.2,13-13.1v-0.4C79.8,32.5,74.5,27.1,67,27.1 M60.9,37.7
		c0.3-4.1,2.3-6.1,6.1-6.1c3.4,0,5.8,2.3,6.4,6.1H60.9z">
  </path>
  <path class="st0" d="M53.3,54.5c-3.1-0.1-6.1,1-8.5,3c-2.4,2.3-3.7,5.6-3.7,9.9v1.8h18.7c-0.2,4.7-2.7,7.4-6.9,7.4
		c-3.4,0-5.3-1.3-5.7-3.8v-0.1h-5.9v0.1c0.8,5.3,5.1,8.4,11.8,8.4c7.8,0,13-5.2,13-13.1v-0.4C66,59.9,60.8,54.5,53.3,54.5
		 M47.2,65.1c0.3-4.1,2.3-6.1,6.1-6.1c3.4,0,5.8,2.3,6.4,6.1H47.2z">
  </path>
  <path class="st1" d="M26.7,26.7c6.7,0,11-3.1,11.8-8.4v-0.1h-5.9v0.1c-0.4,2.5-2.3,3.8-5.7,3.8c-4.2,0-6.7-2.6-6.9-7.4h18.6V13
		c0-4.3-1.2-7.6-3.7-9.9c-2.3-2.1-5.4-3.2-8.5-3C19,0,13.7,5.5,13.7,13.3v0.4C13.7,21.5,19,26.7,26.7,26.7 M20.1,10.6
		c0.6-3.9,3-6.2,6.4-6.2c3.7,0,5.8,2.1,6.1,6.1L20.1,10.6z">
  </path>
  <path class="st1" d="M52.4,40.1c0-4.3-1.2-7.6-3.7-9.9c-2.3-2.1-5.4-3.2-8.5-3c-7.5,0-12.8,5.5-12.8,13.3v0.4
		c0,7.8,5.2,13.1,13,13.1c6.7,0,11-3.1,11.8-8.4v-0.1h-5.9v0.1c-0.4,2.5-2.3,3.8-5.7,3.8c-4.2,0-6.7-2.6-6.9-7.4h18.6V40.1z
		 M33.8,37.7c0.6-3.8,3-6.1,6.4-6.1c3.7,0,5.8,2.1,6.1,6.1H33.8z">
  </path>
  <path class="st1" d="M26.5,54.5c-7.5,0-12.8,5.5-12.8,13.3v0.4c0,7.8,5.2,13.1,13,13.1c6.7,0,11-3.1,11.8-8.4v-0.1h-5.9v0.1
		c-0.4,2.5-2.3,3.8-5.7,3.8c-4.2,0-6.7-2.6-6.9-7.4h18.6v-1.8c0-4.3-1.2-7.6-3.7-9.9C32.6,55.5,29.6,54.4,26.5,54.5 M20.1,65.1
		c0.6-3.8,3-6.1,6.4-6.1c3.7,0,5.8,2.1,6.1,6.1H20.1z">
  </path>
  <path class="st1" d="M24.8,45.4v-0.1h-5.9v0.1c-0.4,2.5-2.3,3.8-5.7,3.8c-4.2,0-6.7-2.6-6.9-7.4h18.6v-1.8c0-4.3-1.2-7.6-3.7-9.9
		c-2.3-2.1-5.4-3.2-8.5-3C5.2,27.1,0,32.6,0,40.4v0.4c0,7.8,5.2,13.1,13,13.1C19.7,53.8,24,50.8,24.8,45.4 M5.7,37.7
		c0.6-3.8,3-6.1,6.4-6.1c3.7,0,5.8,2.1,6.1,6.1H5.7z">
  </path>
 </g>
</svg>